<?xml version="1.0" encoding="UTF-8"?>
<svg version="1.1" xmlns="http://www.w3.org/2000/svg" width="1024" height="1024">
<path d="M0 0 C337.92 0 675.84 0 1024 0 C1024 337.92 1024 675.84 1024 1024 C686.08 1024 348.16 1024 0 1024 C0 686.08 0 348.16 0 0 Z " fill="#0D1A29" transform="translate(0,0)"/>
<path d="M0 0 C0.92977661 0.00149048 1.85955322 0.00298096 2.81750488 0.0045166 C18.34740439 0.04899966 33.51184333 0.89334237 48.875 3.3125 C49.91043945 3.47298828 50.94587891 3.63347656 52.01269531 3.79882812 C63.05455586 5.5439006 74.04442098 7.52443015 84.875 10.3125 C86.0815625 10.60125 87.288125 10.89 88.53125 11.1875 C120.74625375 19.23345447 152.91589437 33.50865573 180.875 51.3125 C181.90625 51.9621875 182.9375 52.611875 184 53.28125 C197.14616091 61.81226931 209.45380045 71.48411928 221.19897461 81.84130859 C222.36227436 82.86243668 223.53292114 83.87523143 224.70922852 84.88134766 C237.43788154 95.82438936 249.74697335 107.90224249 259.875 121.3125 C260.84723235 122.54693425 261.82134974 123.77988511 262.796875 125.01171875 C288.32511719 157.48491612 307.06037638 193.0858719 319.875 232.3125 C320.27203125 233.48425781 320.6690625 234.65601563 321.078125 235.86328125 C330.39259863 264.3611351 334.10138131 295.0490498 334.125 324.9375 C334.12601212 326.10185577 334.12601212 326.10185577 334.12704468 327.28973389 C334.05460869 380.51190866 322.08668577 430.40119989 298.875 478.3125 C298.3190918 479.46540527 298.3190918 479.46540527 297.75195312 480.64160156 C286.10513875 504.48829132 270.19137144 527.77655477 251.96484375 547.08203125 C250.14700002 549.02219718 248.41072632 551.00194699 246.67578125 553.015625 C242.67030525 557.60815175 238.43524273 561.94434605 234.125 566.25 C233.33150146 567.04269287 232.53800293 567.83538574 231.72045898 568.65209961 C226.03135519 574.28208078 220.20444508 579.41067424 213.875 584.3125 C212.18586518 585.72721702 210.49843519 587.14397145 208.8125 588.5625 C184.55492936 608.31902 156.97105325 624.75965533 127.875 636.3125 C126.58335937 636.84037109 126.58335937 636.84037109 125.265625 637.37890625 C123.70022449 638.01453862 122.13141674 638.64188609 120.55834961 639.25830078 C118.72410849 639.97891339 116.89400905 640.71013447 115.06762695 641.45043945 C106.88368349 644.70701697 98.64311153 647.21436199 90.125 649.4375 C89.4675882 649.61058685 88.81017639 649.78367371 88.13284302 649.96200562 C78.81428206 652.41011052 69.53772794 654.64610927 59.99316406 656.00927734 C57.55232243 656.35869243 55.11643318 656.73638729 52.6796875 657.11328125 C50.84918568 657.3895315 49.01845786 657.66428867 47.1875 657.9375 C46.36822021 658.0610083 45.54894043 658.1845166 44.70483398 658.31176758 C30.14580888 660.39121658 15.59984733 660.5275228 0.92041016 660.55273438 C-2.45826406 660.56238084 -5.83631295 660.59346639 -9.21484375 660.625 C-24.06947682 660.69741635 -38.44880683 659.59872308 -53.125 657.3125 C-53.81813293 657.20536682 -54.51126587 657.09823364 -55.22540283 656.987854 C-58.91716919 656.40401217 -62.58488708 655.73153597 -66.25 655 C-67.32072754 654.78907715 -68.39145508 654.5781543 -69.49462891 654.36083984 C-121.55758001 643.80660268 -173.43500678 620.16998931 -213.36474609 584.81762695 C-215.62940939 582.88119849 -217.96542305 581.04002814 -220.29296875 579.1796875 C-226.36471093 574.2285189 -231.87574673 568.82201498 -237.375 563.25 C-238.32511452 562.29842226 -239.27563462 561.34724931 -240.2265625 560.39648438 C-269.70547262 530.7317828 -293.92602132 494.30372607 -309.125 455.3125 C-309.83244938 453.54131334 -310.5407542 451.77046807 -311.25 450 C-311.54132813 449.26136719 -311.83265625 448.52273438 -312.1328125 447.76171875 C-312.91045914 445.84209496 -313.74047933 443.94367397 -314.58984375 442.0546875 C-316.31089975 438.05269447 -317.44792264 433.9546251 -318.5625 429.75 C-318.99786292 428.13258751 -319.43406772 426.51540141 -319.87109375 424.8984375 C-320.08362793 424.11049805 -320.29616211 423.32255859 -320.51513672 422.51074219 C-321.31949161 419.6114582 -322.23130744 416.74784166 -323.125 413.875 C-326.00854771 403.823443 -327.73204716 393.46021562 -329.47436523 383.15917969 C-329.8106189 381.1711824 -330.14907168 379.18337858 -330.51858521 377.20129395 C-333.14623875 363.10500539 -333.55987492 349.29571116 -333.46118164 334.9765625 C-333.43753221 331.31748386 -333.4406545 327.65913625 -333.44726562 324 C-333.42624176 305.62149393 -332.23054642 287.72177454 -328.9375 269.625 C-328.61821533 267.8625293 -328.61821533 267.8625293 -328.29248047 266.06445312 C-325.99971813 253.92112337 -322.81755247 242.09948418 -319.125 230.3125 C-318.85461914 229.44753906 -318.58423828 228.58257812 -318.30566406 227.69140625 C-306.63356227 191.06072203 -287.92939877 156.46173852 -264.125 126.3125 C-263.41214844 125.40757812 -262.69929688 124.50265625 -261.96484375 123.5703125 C-257.1460321 117.5701696 -252.06072144 111.86712382 -246.82421875 106.234375 C-244.32012409 103.52371971 -241.87573155 100.7697639 -239.4375 98 C-236.25303068 94.45544934 -232.96403383 91.2642314 -229.3203125 88.19921875 C-226.69533847 85.94323573 -224.20420318 83.56362439 -221.6875 81.1875 C-173.44811307 36.50389894 -106.96821787 9.38415261 -42.125 2.3125 C-41.40334656 2.23131927 -40.68169312 2.15013855 -39.93817139 2.0664978 C-26.60080432 0.587608 -13.4158419 -0.05385944 0 0 Z " fill="#009596" transform="translate(512.125,106.6875)"/>
<path d="M0 0 C14.52 0 29.04 0 44 0 C53.10351112 17.06908335 53.10351112 17.06908335 57.2265625 25.859375 C58.16984792 27.85010749 59.11422426 29.84032335 60.05957031 31.83007812 C60.54107544 32.84368408 61.02258057 33.85729004 61.51867676 34.90161133 C64.00540639 40.10294396 66.54416636 45.27851897 69.0859375 50.453125 C69.59723709 51.49434006 70.10853668 52.53555511 70.6353302 53.60832214 C71.68086764 55.73631492 72.72675354 57.86413653 73.77297974 59.99179077 C81.0865015 74.86612454 88.39754254 89.74092438 95.5625 104.6875 C100.49277336 114.97028079 105.55170377 125.17787406 110.69580078 135.35498047 C112.30790192 138.54560223 113.91561682 141.73841158 115.52151489 144.93215942 C116.17123809 146.22222361 116.82249211 147.51151803 117.47531128 148.80001831 C118.39341856 150.6122414 119.30619466 152.42716236 120.21875 154.2421875 C120.75435547 155.3029248 121.28996094 156.36366211 121.84179688 157.45654297 C123 160 123 160 123 162 C123.66 162 124.32 162 125 162 C125.11158447 161.28642334 125.22316895 160.57284668 125.33813477 159.83764648 C126.05279716 156.77364023 127.14951253 154.3922159 128.58984375 151.59765625 C129.12206543 150.55295166 129.65428711 149.50824707 130.20263672 148.43188477 C130.7751416 147.31998779 131.34764648 146.20809082 131.9375 145.0625 C136.30507476 136.48303475 140.4797736 127.86620183 144.375 119.0625 C154.0160448 97.57712454 154.0160448 97.57712454 165 92 C168.3862409 90.87125303 170.95309535 90.87298732 174.52368164 90.87060547 C175.51720139 90.86801948 175.51720139 90.86801948 176.53079224 90.86538124 C178.74060502 90.86102738 180.9503424 90.86399308 183.16015625 90.8671875 C184.72464524 90.86608756 186.28913403 90.8646567 187.85362244 90.86291504 C192.05387828 90.8600019 196.25409519 90.86432272 200.4543457 90.87102509 C203.05639647 90.8749907 205.65844523 90.87750801 208.26049805 90.87969971 C229.84218545 90.90063208 251.42132912 90.99147461 273 91.375 C274.01023224 91.39028748 275.02046448 91.40557495 276.06130981 91.42132568 C298.58360466 91.77864173 318.06786338 94.63965358 335.25 110.75 C342.48181615 118.449846 347.64888364 126.69397868 350 137 C350.391875 138.216875 350.78375 139.43375 351.1875 140.6875 C354.6438894 155.3993113 350.86098042 170.98750256 343.8984375 184.08203125 C340.26096287 189.67296447 335.72594296 194.32284996 331 199 C330.41476562 199.60714844 329.82953125 200.21429687 329.2265625 200.83984375 C315.34416207 214.12325736 295.82830135 216.61062852 277.61523438 216.51757812 C275.81011392 216.5230108 274.00499791 216.53013984 272.19989014 216.53881836 C267.34085453 216.55690807 262.48216215 216.5500469 257.62312126 216.53730202 C252.52237967 216.52711186 247.42166571 216.53658314 242.32092285 216.54284668 C233.76728072 216.55010038 225.21377728 216.54058987 216.66015625 216.52148438 C206.77715933 216.49966427 196.89449186 216.50681338 187.01150274 216.52879 C178.50670984 216.54694264 170.00201604 216.54950465 161.49721003 216.53903532 C156.42559051 216.53280681 151.35412598 216.53194826 146.28251648 216.54518127 C141.52165521 216.55673911 136.76121966 216.54871533 132.00040436 216.52560425 C130.2549078 216.5203192 128.50937536 216.52182745 126.76389313 216.53065491 C124.37966989 216.54160104 121.99680762 216.52786021 119.6126709 216.50793457 C118.92376314 216.51685746 118.23485538 216.52578034 117.52507162 216.53497362 C112.59480377 216.45514904 109.82843941 215.02773015 106 212 C101.28832294 207.05659569 98.26512129 201.02367024 95.3671875 194.90625 C94.9410466 194.02606705 94.5149057 193.14588409 94.07585144 192.23902893 C93.15236061 190.3299662 92.23259639 188.41909714 91.31619263 186.50662231 C88.80867566 181.27542953 86.27190069 176.05843086 83.73828125 170.83984375 C83.20228806 169.73418564 82.66629486 168.62852753 82.11405945 167.48936462 C75.84109409 154.57119124 69.41439394 141.73038289 62.97959137 128.89230347 C62.07226908 127.0819915 61.16531333 125.27149639 60.25848389 123.4609375 C55.74145162 114.44280716 51.2235936 105.42508593 46.6953125 96.41259766 C42.36633105 87.78857773 38.12909994 79.12295009 33.9309082 70.43457031 C28.20176984 58.58154602 22.41335129 46.76222297 16.5 35 C12.48689302 27.01413877 8.51604357 19.01372508 4.6875 10.9375 C4.32011719 10.16341797 3.95273437 9.38933594 3.57421875 8.59179688 C2.23967444 5.75328368 0.99284634 2.97853903 0 0 Z " fill="#56DFD8" transform="translate(358,378)"/>
<path d="M0 0 C1.18007629 -0.00708481 2.36015259 -0.01416962 3.57598877 -0.02146912 C4.86741791 -0.0189917 6.15884705 -0.01651428 7.4894104 -0.01396179 C8.86628496 -0.01831033 10.24315709 -0.02349395 11.62002563 -0.02944946 C15.36030616 -0.04284668 19.10048566 -0.04341653 22.8407855 -0.04088616 C25.97118839 -0.0398153 29.10157095 -0.04470363 32.23196948 -0.04949158 C39.62932204 -0.06059278 47.02662385 -0.06102306 54.42398071 -0.05497742 C62.02646852 -0.04895878 69.62877026 -0.06119324 77.23122633 -0.08254749 C83.77585723 -0.100247 90.32042942 -0.10615112 96.86508334 -0.10290974 C100.76562018 -0.10110738 104.66602481 -0.10362579 108.56653976 -0.11762428 C112.24545009 -0.13033173 115.92407491 -0.1281386 119.60298157 -0.11521339 C121.57311774 -0.11177205 123.54326314 -0.12293451 125.5133667 -0.13478088 C144.34470351 -0.02546062 160.26724328 5.12990985 173.65982056 18.49507141 C179.38402883 24.6730279 183.21235902 31.42111477 186.22232056 39.26069641 C186.76179321 40.51366516 186.76179321 40.51366516 187.31216431 41.79194641 C188.64840953 46.88458914 188.55085337 51.83046799 188.53482056 57.07319641 C188.55093384 58.11540344 188.56704712 59.15761047 188.58364868 60.23139954 C188.58777987 66.81237943 187.77957196 72.19281513 185.22232056 78.26069641 C184.65771118 79.62194641 184.65771118 79.62194641 184.08169556 81.01069641 C176.43355724 96.52241357 165.12440008 105.581701 148.98403931 111.16694641 C142.71031693 112.99108168 136.60333932 113.41075454 130.10061646 113.42132568 C129.31144884 113.4264135 128.52228122 113.43150132 127.70919943 113.43674332 C125.08011119 113.45236715 122.45105023 113.46096581 119.82192993 113.46943665 C117.93079966 113.4789827 116.03967111 113.48887418 114.14854431 113.49908447 C107.95440722 113.53036326 101.76025709 113.55071472 95.56607056 113.56929016 C94.51121901 113.57258748 93.45636745 113.5758848 92.3695507 113.57928205 C82.41899957 113.61004185 72.46844528 113.6367407 62.51786041 113.65370083 C49.80122567 113.67563349 37.08501161 113.71768876 24.36854506 113.7871384 C15.41890171 113.83435606 6.46937203 113.8586308 -2.48039198 113.86589772 C-7.82336923 113.87085431 -13.16587121 113.88593832 -18.50871277 113.92564201 C-23.53218792 113.96248548 -28.55491577 113.97092551 -33.57850075 113.95763588 C-35.42036236 113.95768985 -37.26225697 113.96799645 -39.10399437 113.98938751 C-54.75621813 114.16144967 -54.75621813 114.16144967 -59.30270386 110.46713257 C-63.01418983 106.40316096 -64.36324872 102.31171113 -64.22396851 96.8886261 C-63.29150851 91.39792621 -60.3222822 86.70535482 -57.65267944 81.88569641 C-57.0134683 80.70020769 -56.3762165 79.51366065 -55.74081421 78.3261261 C-54.42031346 75.86120787 -53.09152215 73.40102392 -51.75765991 70.9433136 C-49.24614148 66.29609403 -46.84828676 61.59172067 -44.44393921 56.88838196 C-37.58037147 43.47820549 -30.40823424 30.25127029 -22.77767944 17.26069641 C-22.33641724 16.50820618 -21.89515503 15.75571594 -21.44052124 14.98042297 C-19.20196073 11.26927136 -17.08460305 8.18573432 -13.71517944 5.38569641 C-13.06420288 4.83139954 -12.41322632 4.27710266 -11.74252319 3.70600891 C-7.77078708 0.78445352 -4.9555746 0.00992225 0 0 Z " fill="#004154" transform="translate(521.7776794433594,263.7393035888672)"/>
<path d="M0 0 C14.52 0 29.04 0 44 0 C53.10351112 17.06908335 53.10351112 17.06908335 57.2265625 25.859375 C58.16984792 27.85010749 59.11422426 29.84032335 60.05957031 31.83007812 C60.54107544 32.84368408 61.02258057 33.85729004 61.51867676 34.90161133 C64.00540639 40.10294396 66.54416636 45.27851897 69.0859375 50.453125 C69.59723709 51.49434006 70.10853668 52.53555511 70.6353302 53.60832214 C71.68086764 55.73631492 72.72675354 57.86413653 73.77297974 59.99179077 C81.08650178 74.8661251 88.39750538 89.74094179 95.5625 104.6875 C98.62863764 111.08198493 101.69806268 117.47220201 104.875 123.8125 C105.16246094 124.38871094 105.44992187 124.96492188 105.74609375 125.55859375 C107.73921184 129.53645549 109.77032117 133.49365149 111.81512451 137.44520569 C113.2199747 140.1671905 114.61299305 142.89514693 116.00469971 145.62387085 C116.70571446 146.99145838 117.41183955 148.35643931 118.12322998 149.71865845 C119.12772211 151.64330033 120.11426089 153.57623192 121.09765625 155.51171875 C121.68039307 156.64053467 122.26312988 157.76935059 122.86352539 158.93237305 C124.79833837 164.15491336 122.93016082 167.4730149 120.70231628 172.39265442 C120.3919191 173.06358627 120.08152191 173.73451813 119.76171875 174.42578125 C119.43967972 175.13220261 119.11764069 175.83862396 118.7858429 176.56645203 C118.10488671 178.05771532 117.42141685 179.54783304 116.7355957 181.03686523 C115.69675576 183.29240382 114.66506033 185.55109407 113.63476562 187.81054688 C112.96916734 189.26581595 112.30316446 190.72090006 111.63671875 192.17578125 C111.33239426 192.84064041 111.02806976 193.50549957 110.71452332 194.19050598 C108.57023402 198.8430815 106.30898357 203.42687058 104 208 C99.7876358 204.43954931 97.87881522 200.17978093 95.5625 195.296875 C95.13352921 194.41103226 94.70455841 193.52518951 94.2625885 192.61250305 C93.32726337 190.67947836 92.39557356 188.74469145 91.46707153 186.80838013 C88.9320982 181.52376252 86.36897442 176.25281094 83.80859375 170.98046875 C83.26641708 169.8624437 82.72424042 168.74441864 82.16563416 167.59251404 C75.87390955 154.64000437 69.43104376 141.76355821 62.97869873 128.89051819 C62.07185632 127.08116791 61.16538154 125.27163395 60.2590332 123.46203613 C55.74181779 114.4435396 51.22377742 105.42545179 46.6953125 96.41259766 C42.36633105 87.78857773 38.12909994 79.12295009 33.9309082 70.43457031 C28.20176984 58.58154602 22.41335129 46.76222297 16.5 35 C12.48689302 27.01413877 8.51604357 19.01372508 4.6875 10.9375 C4.32011719 10.16341797 3.95273437 9.38933594 3.57421875 8.59179688 C2.23967444 5.75328368 0.99284634 2.97853903 0 0 Z " fill="#F7FAF8" transform="translate(358,378)"/>
<path d="M0 0 C11.57912983 6.87200501 19.48490635 18.09590622 23 31 C24.6040874 45.96971185 22.4811773 58.5471228 13.05859375 70.59765625 C5.86262717 78.99522636 -4.7924933 85.7978107 -16 87 C-31.3413143 87.83023583 -43.40510109 84.93523025 -55.375 74.75 C-65.08200021 65.41634595 -70.05519496 53.38543896 -70.5 39.9375 C-70.0495442 26.40881093 -64.06670076 14.10235159 -54.27734375 4.8203125 C-39.23624624 -7.20224572 -16.93679884 -9.54114748 0 0 Z " fill="#F8FAF8" transform="translate(400,250)"/>
<path d="M0 0 C4.95 0 9.9 0 15 0 C15 35.64 15 71.28 15 108 C10.71 108 6.42 108 2 108 C2 104.37 2 100.74 2 97 C1.34 97 0.68 97 0 97 C-0.39445313 97.89332031 -0.39445313 97.89332031 -0.796875 98.8046875 C-2.05760865 101.10511708 -3.271113 102.42244407 -5.25 104.125 C-5.81203125 104.62257813 -6.3740625 105.12015625 -6.953125 105.6328125 C-13.83405289 110.22885212 -23.02647113 110.04143225 -31 109 C-34.73254463 107.81558951 -37.77324332 106.19802831 -41 104 C-41.9075 103.4225 -42.815 102.845 -43.75 102.25 C-53.22275943 92.77724057 -55.23191061 82.39731072 -55.375 69.4375 C-55.38901855 68.56319336 -55.40303711 67.68888672 -55.41748047 66.78808594 C-55.34078628 56.29868017 -52.39966342 46.89382905 -45.25 39.08984375 C-38.74489386 32.91261594 -31.8678269 29.83432348 -22.875 29.5625 C-12.78924816 29.97521619 -9.00771867 32.99324617 -1 40 C-0.67 26.8 -0.34 13.6 0 0 Z " fill="#FBFCFC" transform="translate(739,792)"/>
<path d="M0 0 C8.86115079 5.95358569 14.75826556 14.50098567 17 25 C18.09816166 38.79191212 17.32231138 52.42113199 9 64 C2.83994437 70.8992623 -5.82459453 74.68988238 -14.9765625 75.23828125 C-23.66567472 75.44592204 -31.30880817 75.57468659 -39 71 C-39.71414063 70.5875 -40.42828125 70.175 -41.1640625 69.75 C-49.36735004 64.34258949 -53.50055915 55.88662336 -55.52734375 46.46875 C-57.37837365 32.88433226 -57.00238947 19.71085307 -48.875 8.125 C-37.21777111 -5.65854747 -15.67107176 -8.21395665 0 0 Z " fill="#F9FAFA" transform="translate(542,826)"/>
<path d="M0 0 C8.61431572 5.10418334 15.71868587 13.21026924 18.77734375 22.86328125 C20.10831404 35.5285143 18.02895361 46.2238478 10.58984375 56.80078125 C4.13371986 64.43329215 -5.46747993 69.18187492 -15.359375 70.1796875 C-22.60878898 70.44070008 -27.96377446 69.52919772 -34.22265625 65.86328125 C-35.23328125 65.30640625 -36.24390625 64.74953125 -37.28515625 64.17578125 C-45.2647576 57.89396742 -51.63570178 50.07562716 -53.22265625 39.86328125 C-54.14183792 26.67829831 -52.22834268 17.47166608 -43.5703125 7.1953125 C-31.45125841 -4.84308233 -15.29329813 -7.82135282 0 0 Z " fill="#009495" transform="translate(665.22265625,499.13671875)"/>
<path d="M0 0 C0.70302246 0.00161133 1.40604492 0.00322266 2.13037109 0.00488281 C11.1600925 0.21627404 19.23247357 3.55918318 25.8046875 9.8671875 C32.82402962 17.44528322 35.43294801 25.91194074 35.375 36.0625 C35.37886719 36.75150391 35.38273438 37.44050781 35.38671875 38.15039062 C35.37669335 43.24830665 35.37669335 43.24830665 34.25 44.375 C32.56198015 44.46853163 30.87004793 44.49244791 29.17944336 44.48852539 C28.09839828 44.48844986 27.01735321 44.48837433 25.90354919 44.48829651 C24.139515 44.48055458 24.139515 44.48055458 22.33984375 44.47265625 C21.14267227 44.4712413 19.94550079 44.46982635 18.71205139 44.46836853 C14.87050934 44.46274979 11.02902457 44.45019411 7.1875 44.4375 C4.59049563 44.43248741 1.99349035 44.42792409 -0.60351562 44.42382812 C-6.98569679 44.41277427 -13.3678443 44.39601792 -19.75 44.375 C-19.31599512 46.29265651 -18.86956407 48.2075033 -18.41796875 50.12109375 C-18.17071045 51.1877124 -17.92345215 52.25433105 -17.66870117 53.35327148 C-16.11997943 58.44722019 -13.48094135 61.77330866 -8.8984375 64.4609375 C-2.0806991 67.42162868 4.49088727 67.22871312 11.4375 64.8125 C16.33616792 62.69560294 19.24734434 59.72030657 22.25 55.375 C26.35958767 56.82544271 29.68258745 58.88610752 33.25 61.375 C31.20715255 67.38337485 28.61746594 70.91663275 23.25 74.375 C12.17543724 79.79998082 -0.80009965 81.75680208 -12.6875 77.75 C-22.02722207 73.77299668 -28.51330622 67.88575227 -32.56811523 58.4765625 C-34.8934406 52.30330336 -35.25608668 46.55515819 -35.1875 40 C-35.17920166 38.98212402 -35.17090332 37.96424805 -35.16235352 36.91552734 C-34.90464438 25.49378518 -32.09847799 16.51753831 -23.75 8.375 C-16.37335692 2.9272731 -9.237898 -0.02210552 0 0 Z " fill="#F7F8F8" transform="translate(804.75,821.625)"/>
<path d="M0 0 C8.74659373 6.26209618 13.41762385 14.12422018 15.6015625 24.55859375 C15.6015625 29.50859375 15.6015625 34.45859375 15.6015625 39.55859375 C-2.5484375 39.55859375 -20.6984375 39.55859375 -39.3984375 39.55859375 C-36.6194658 50.72610205 -36.6194658 50.72610205 -29.9609375 58.87109375 C-23.35126834 62.00198967 -15.61631371 62.49468369 -8.5234375 60.62109375 C-3.5155675 58.65867519 -0.52503573 54.79106274 2.6015625 50.55859375 C6.71115017 52.00903646 10.03414995 54.06970127 13.6015625 56.55859375 C11.55871505 62.5669686 8.96902844 66.1002265 3.6015625 69.55859375 C-6.98411226 74.74408809 -18.71547238 76.27891348 -30.31640625 73.98046875 C-38.99481356 70.94509576 -46.21083302 64.51297577 -50.3984375 56.37109375 C-51.11273413 54.78756116 -51.77915113 53.18164012 -52.3984375 51.55859375 C-52.76195313 50.67945313 -53.12546875 49.8003125 -53.5 48.89453125 C-56.45779223 37.91212008 -55.89124739 23.56885476 -50.3984375 13.55859375 C-49.97433594 12.75292969 -49.55023438 11.94726562 -49.11328125 11.1171875 C-45.62742145 5.22326856 -41.38655514 1.77978807 -35.3984375 -1.44140625 C-34.79515625 -1.78171875 -34.191875 -2.12203125 -33.5703125 -2.47265625 C-23.52620385 -7.18902031 -9.3563 -5.62292297 0 0 Z " fill="#F7F8F8" transform="translate(168.3984375,826.44140625)"/>
<path d="M0 0 C5.61 0 11.22 0 17 0 C20.37496244 7.87491237 20.37496244 7.87491237 21.37866211 10.90893555 C21.71932961 11.93116463 21.71932961 11.93116463 22.06687927 12.9740448 C22.30133255 13.6877272 22.53578583 14.40140961 22.77734375 15.13671875 C23.02996475 15.89741165 23.28258575 16.65810455 23.54286194 17.44184875 C24.3439253 19.85613232 25.14080561 22.27177164 25.9375 24.6875 C26.72946452 27.07840482 27.52226507 29.46903136 28.31509399 31.85964966 C28.82835879 33.4095933 29.34039879 34.95994311 29.85116577 36.51071167 C30.97031901 39.90765953 32.1026818 43.29738638 33.27001953 46.67822266 C33.63595215 47.73960449 34.00188477 48.80098633 34.37890625 49.89453125 C34.85372437 51.24768433 34.85372437 51.24768433 35.33813477 52.62817383 C36 55 36 55 36 59 C36.66 59 37.32 59 38 59 C38.09748535 58.05705078 38.1949707 57.11410156 38.29541016 56.14257812 C39.01476729 51.14572975 40.65941887 46.48682635 42.2734375 41.71875 C42.76005356 40.26027649 42.76005356 40.26027649 43.25650024 38.77233887 C43.94126599 36.72406257 44.62893522 34.67675492 45.31933594 32.63037109 C46.37083251 29.51235789 47.41271316 26.39125845 48.453125 23.26953125 C49.1218306 21.27324807 49.79108329 19.27714805 50.4609375 17.28125 C50.77042328 16.35501831 51.07990906 15.42878662 51.39877319 14.4744873 C51.69563019 13.59667603 51.99248718 12.71886475 52.29833984 11.81445312 C52.55513519 11.05169067 52.81193054 10.28892822 53.07650757 9.50305176 C54.26274332 6.28785541 55.65002053 3.1499521 57 0 C62.28 0 67.56 0 73 0 C70.30161604 9.51636477 66.92686957 18.76672744 63.5625 28.0625 C62.93800435 29.79082927 62.31357491 31.51918246 61.68920898 33.24755859 C60.7332897 35.89334665 59.7770278 38.53900738 58.81947327 41.1842041 C57.01589822 46.17026236 55.22871789 51.16162978 53.46253967 56.16105652 C52.41579788 59.12145331 51.36105824 62.07896609 50.30514526 65.03610229 C49.81903945 66.40341099 49.33641644 67.77196412 48.85769653 69.14187622 C39.35611896 96.30501073 39.35611896 96.30501073 26.69140625 103.26953125 C20.22616674 106.1969917 14.04502951 106.67232421 7 107 C7 102.38 7 97.76 7 93 C8.52625 92.7525 10.0525 92.505 11.625 92.25 C18.55221959 90.85085819 23.01659143 87.90134603 27 82 C28.25137078 78.62933895 27.83431863 76.72410429 26.58813477 73.39697266 C26.25350723 72.48726715 25.9188797 71.57756165 25.57411194 70.64028931 C25.20031906 69.65813446 24.82652618 68.67597961 24.44140625 67.6640625 C24.05943588 66.63429291 23.67746552 65.60452332 23.28392029 64.54354858 C22.05360867 61.23347312 20.80845088 57.92921641 19.5625 54.625 C18.75744914 52.46912853 17.95340229 50.31288185 17.15039062 48.15625 C15.55549521 43.87540507 13.95688648 39.59597446 12.35595703 35.31738281 C10.05780709 29.16487969 7.78202091 23.00450153 5.52734375 16.8359375 C5.1994838 15.94427887 4.87162384 15.05262024 4.53382874 14.13394165 C4.22867844 13.2961618 3.92352814 12.45838196 3.60913086 11.59521484 C3.34531113 10.87328949 3.08149139 10.15136414 2.80967712 9.40756226 C1.76645605 6.30556073 0.89908648 3.14680269 0 0 Z " fill="#F9FAFA" transform="translate(355,823)"/>
<path d="M0 0 C6.38761733 4.82832745 9.77845745 12.0327031 11.07421875 19.81640625 C11.15767687 21.65645604 11.19205781 23.49912801 11.18774414 25.34106445 C11.18763084 26.96217888 11.18763084 26.96217888 11.18751526 28.61604309 C11.18235397 29.77142075 11.17719269 30.9267984 11.171875 32.1171875 C11.17046005 33.30869919 11.1690451 34.50021088 11.16758728 35.72782898 C11.16199603 39.52821376 11.14944507 43.32853932 11.13671875 47.12890625 C11.13170262 49.70768144 11.12713991 52.28645755 11.12304688 54.86523438 C11.11202945 61.18231443 11.09477076 67.49935031 11.07421875 73.81640625 C5.79421875 73.81640625 0.51421875 73.81640625 -4.92578125 73.81640625 C-4.93512695 72.28830322 -4.94447266 70.7602002 -4.95410156 69.18579102 C-4.99412957 63.48823452 -5.05992496 57.79121069 -5.13330078 52.09399414 C-5.16143605 49.63345204 -5.18268739 47.17282081 -5.19677734 44.7121582 C-5.21830927 41.1644146 -5.26501498 37.6177343 -5.31640625 34.0703125 C-5.31763489 32.97932755 -5.31886353 31.88834259 -5.32012939 30.76429749 C-5.44669466 24.08642862 -6.30871321 18.54775464 -9.92578125 12.81640625 C-14.31448328 9.19572708 -19.43891288 9.19522629 -24.9453125 9.33203125 C-29.65863661 10.09802364 -32.76584126 12.30620786 -35.92578125 15.81640625 C-38.42580999 19.42599191 -39.30588231 21.86887475 -39.3581543 26.24926758 C-39.37794846 27.30998978 -39.39774261 28.37071198 -39.4181366 29.46357727 C-39.42772148 31.16383308 -39.42772148 31.16383308 -39.4375 32.8984375 C-39.4554512 34.06775314 -39.4734024 35.23706879 -39.49189758 36.44181824 C-39.54601182 40.17081107 -39.57990093 43.89967579 -39.61328125 47.62890625 C-39.64645322 50.15952304 -39.68094276 52.69012292 -39.71679688 55.22070312 C-39.80173945 61.41917844 -39.86854608 67.61761567 -39.92578125 73.81640625 C-45.20578125 73.81640625 -50.48578125 73.81640625 -55.92578125 73.81640625 C-55.92578125 48.40640625 -55.92578125 22.99640625 -55.92578125 -3.18359375 C-51.30578125 -3.18359375 -46.68578125 -3.18359375 -41.92578125 -3.18359375 C-41.26578125 -0.21359375 -40.60578125 2.75640625 -39.92578125 5.81640625 C-39.42949219 5.34589844 -38.93320312 4.87539063 -38.421875 4.390625 C-27.5527288 -5.5710403 -13.12865952 -8.06893273 0 0 Z " fill="#F9FAFA" transform="translate(628.92578125,826.18359375)"/>
<path d="M0 0 C5.70957298 4.40138388 9.64260017 10.7020007 11.07421875 17.78125 C11.16016892 19.64456146 11.19194524 21.51068855 11.18774414 23.37597656 C11.18763084 25.05726654 11.18763084 25.05726654 11.18751526 26.77252197 C11.18235397 27.97680847 11.17719269 29.18109497 11.171875 30.421875 C11.17046005 31.65919373 11.1690451 32.89651245 11.16758728 34.17132568 C11.16293985 37.45269941 11.15396222 40.73402373 11.1428833 44.01538086 C11.13263395 47.36702011 11.12816734 50.71866148 11.12304688 54.0703125 C11.11201899 60.6406468 11.09475492 67.21093881 11.07421875 73.78125 C5.79421875 73.78125 0.51421875 73.78125 -4.92578125 73.78125 C-4.93512695 72.21761719 -4.94447266 70.65398437 -4.95410156 69.04296875 C-4.99408801 63.22058016 -5.05987219 57.39871511 -5.13330078 51.57666016 C-5.16146002 49.06077825 -5.18269953 46.5448087 -5.19677734 44.02880859 C-5.21827581 40.40416764 -5.26496495 36.78057483 -5.31640625 33.15625 C-5.31763489 32.03822998 -5.31886353 30.92020996 -5.32012939 29.76831055 C-5.44567063 23.01652608 -6.24345307 18.50227776 -9.92578125 12.78125 C-15.25400171 9.37118891 -20.69329375 8.90669127 -26.92578125 9.78125 C-32.12811414 11.40953923 -35.50500104 15.01703362 -38.65093994 19.33666992 C-41.07060707 23.97651805 -40.77303343 28.80692409 -40.73046875 33.9375 C-40.74417511 35.08037476 -40.75788147 36.22324951 -40.77200317 37.40075684 C-40.80920129 41.02799205 -40.80559468 44.65385163 -40.80078125 48.28125 C-40.81891493 50.75002131 -40.83971971 53.21877453 -40.86328125 55.6875 C-40.91503785 61.71897949 -40.93021818 67.74956067 -40.92578125 73.78125 C-45.87578125 73.78125 -50.82578125 73.78125 -55.92578125 73.78125 C-55.92578125 48.37125 -55.92578125 22.96125 -55.92578125 -3.21875 C-51.30578125 -3.21875 -46.68578125 -3.21875 -41.92578125 -3.21875 C-41.26578125 -0.24875 -40.60578125 2.72125 -39.92578125 5.78125 C-39.42949219 5.31074219 -38.93320313 4.84023438 -38.421875 4.35546875 C-27.62728678 -5.53786352 -13.01063363 -8.23391013 0 0 Z " fill="#FBFBFB" transform="translate(254.92578125,826.21875)"/>
<path d="M0 0 C5.61 0 11.22 0 17 0 C24.17588709 19.16383964 30.59263286 38.56924183 37 58 C38.87473215 55.18790178 39.79671992 52.99872068 40.86352539 49.82592773 C41.22052017 48.77150986 41.57751495 47.71709198 41.94532776 46.63072205 C42.51573036 44.92439354 42.51573036 44.92439354 43.09765625 43.18359375 C43.49198349 42.01619156 43.88631073 40.84878937 44.29258728 39.64601135 C45.33921484 36.5456397 46.38218112 33.44406983 47.42315674 30.34179688 C48.89231239 25.96588696 50.36744009 21.59198902 51.84312439 17.21827698 C52.62845177 14.88957789 53.41199453 12.56027607 54.19361877 10.23033142 C54.5474614 9.1790657 54.90130402 8.12779999 55.26586914 7.04467773 C55.57738419 6.11662827 55.88889923 5.1885788 56.20985413 4.23240662 C57 2 57 2 58 0 C63.28 0 68.56 0 74 0 C72.78077505 5.93070774 71.27008283 11.47988048 69.12890625 17.13671875 C68.8504335 17.88712936 68.57196075 18.63753998 68.28504944 19.41069031 C67.38289089 21.83832801 66.47272688 24.26287741 65.5625 26.6875 C64.93540784 28.37102298 64.30894958 30.0547822 63.68310547 31.73876953 C62.41188974 35.15822231 61.13816676 38.57672499 59.86279297 41.99462891 C57.33148863 48.78645687 54.83790506 55.59203467 52.34786987 62.39907837 C51.63300703 64.35311326 50.91735878 66.3068586 50.20141602 68.26049805 C49.13390525 71.17352903 48.06688855 74.08674107 47 77 C40.73 77 34.46 77 28 77 C25.33633055 70.41962231 22.79543247 63.81553218 20.390625 57.13671875 C20.06012146 56.22404739 19.72961792 55.31137604 19.38909912 54.37104797 C17.99680374 50.52618238 16.60829816 46.67995194 15.21972656 42.83374023 C14.19482581 39.99669966 13.16827168 37.16026579 12.140625 34.32421875 C11.80405884 33.39471405 11.46749268 32.46520935 11.12072754 31.50753784 C8.31697409 23.79788365 5.40380981 16.13208601 2.42486572 8.4884491 C2.10644714 7.66444107 1.78802856 6.84043304 1.45996094 5.99145508 C1.17731384 5.26654373 0.89466675 4.54163239 0.60345459 3.79475403 C0 2 0 2 0 0 Z " fill="#F9FAFA" transform="translate(844,823)"/>
<path d="M0 0 C5.61 0 11.22 0 17 0 C23.89284264 19.93180329 30.69687623 39.87197197 37 60 C37.39268066 58.81672119 37.78536133 57.63344238 38.18994141 56.41430664 C39.67563858 51.93883671 41.16345863 47.46407471 42.65185547 42.98950195 C43.29043734 41.06878995 43.92847641 39.14789738 44.56591797 37.22680664 C47.78527488 27.52564215 51.02111021 17.83111498 54.3984375 8.18359375 C54.77242172 7.10755638 54.77242172 7.10755638 55.15396118 6.00978088 C56.88046551 1.11953449 56.88046551 1.11953449 58 0 C60.69654854 -0.07319621 63.36691458 -0.09242537 66.0625 -0.0625 C66.82111328 -0.05798828 67.57972656 -0.05347656 68.36132812 -0.04882812 C70.24091871 -0.0370068 72.12046899 -0.01907078 74 0 C71.45482008 9.14441778 68.1806106 18.02465145 64.9375 26.9375 C64.35954699 28.53249646 63.78174918 30.12754916 63.20410156 31.72265625 C59.18918085 42.79504496 55.12058237 53.84714368 50.98413086 64.87475586 C50.60264893 65.89577393 50.22116699 66.91679199 49.828125 67.96875 C49.4971582 68.84982422 49.16619141 69.73089844 48.82519531 70.63867188 C47.87441073 73.24426683 47.87441073 73.24426683 47 77 C40.4 77 33.8 77 27 77 C25.948125 73.9475 24.89625 70.895 23.8125 67.75 C20.08282181 56.99084847 16.24180226 46.27296491 12.375 35.5625 C12.10386383 34.81053345 11.83272766 34.05856689 11.55337524 33.28381348 C10.75297734 31.0650574 9.95119498 28.84680966 9.1484375 26.62890625 C8.89021713 25.91540009 8.63199677 25.20189392 8.36595154 24.46676636 C7.02402913 20.77278954 5.66076894 17.08817459 4.26660156 13.41357422 C3.98732819 12.67670883 3.70805481 11.93984344 3.4203186 11.1806488 C2.88629909 9.77619281 2.34930731 8.3728623 1.80892944 6.97084045 C0 2.2185987 0 2.2185987 0 0 Z " fill="#F9FAFA" transform="translate(275,823)"/>
<path d="M0 0 C5.41431156 3.04632108 7.29940242 6.81802624 9.09741211 12.46826172 C10.09047409 16.4837033 10.15030262 20.34692303 10.08984375 24.46484375 C10.10144531 25.25503906 10.11304688 26.04523437 10.125 26.859375 C10.09063479 33.85842236 8.838854 40.25083065 4.46484375 45.83984375 C-2.41762766 51.15811711 -8.71745001 51.97749429 -17.28515625 50.96484375 C-21.9093777 49.63828427 -24.5972047 47.7976272 -27.66015625 44.08984375 C-31.00053582 37.66603689 -31.62423129 32.26914002 -31.59765625 25.15234375 C-31.61376953 24.30091797 -31.62988281 23.44949219 -31.64648438 22.57226562 C-31.65199402 15.33809745 -30.58966358 8.82990692 -25.97265625 3.08984375 C-18.17527979 -3.07552369 -9.18232378 -4.07477354 0 0 Z " fill="#0D1927" transform="translate(533.28515625,837.03515625)"/>
<path d="M0 0 C5.32379731 2.79320307 9.96600694 7.64802081 11.8671875 13.3515625 C12.20476163 17.40837438 12.2374494 21.46999822 12.3046875 25.5390625 C12.35044922 26.65087891 12.39621094 27.76269531 12.44335938 28.90820312 C12.53462363 35.61017407 11.90224419 39.67876077 7.45117188 44.80786133 C1.23113205 50.8697158 -4.02118107 50.81328916 -12.51171875 50.8828125 C-17.74944934 50.11438601 -20.79910161 47.75936844 -24.3828125 43.9765625 C-28.40600224 37.94177789 -28.49792337 31.9978414 -28.5078125 24.9765625 C-28.53230469 24.0690625 -28.55679688 23.1615625 -28.58203125 22.2265625 C-28.61313403 15.03145297 -27.12454579 9.74219356 -22.31640625 4.29296875 C-21.74019531 3.83792969 -21.16398438 3.38289062 -20.5703125 2.9140625 C-19.99152344 2.44097656 -19.41273438 1.96789062 -18.81640625 1.48046875 C-13.71778945 -1.93832534 -5.71563378 -1.73772016 0 0 Z " fill="#0D1926" transform="translate(727.1328125,836.6484375)"/>
<path d="M0 0 C4.95 0 9.9 0 15 0 C15 3.3 15 6.6 15 10 C15.639375 9.0925 16.27875 8.185 16.9375 7.25 C20.84739669 2.61523482 25.77649215 0.27835305 31.8046875 -0.2421875 C34.20447362 -0.24898576 36.60400365 -0.13498571 39 0 C39 4.95 39 9.9 39 15 C35.968125 15.37125 35.968125 15.37125 32.875 15.75 C27.66002435 16.57103308 23.93423165 17.26752382 20 21 C15.63029183 27.05956413 15.39933819 32.05751658 15.390625 39.40234375 C15.37408875 40.48004532 15.35755249 41.55774689 15.34051514 42.66810608 C15.29214794 46.09129603 15.27068845 49.51404204 15.25 52.9375 C15.22183101 55.26629824 15.19190229 57.5950759 15.16015625 59.92382812 C15.08639144 65.61584887 15.03674748 71.30762478 15 77 C10.05 77 5.1 77 0 77 C0 51.59 0 26.18 0 0 Z " fill="#FBFCFC" transform="translate(439,823)"/>
<path d="M0 0 C5.01515812 3.08780359 6.98651938 7.81937362 8.94140625 13.1953125 C8.94140625 14.5153125 8.94140625 15.8353125 8.94140625 17.1953125 C-4.25859375 17.1953125 -17.45859375 17.1953125 -31.05859375 17.1953125 C-30.07218115 9.30401173 -29.42389517 6.46730433 -24.05859375 1.1953125 C-16.42625387 -4.51290809 -8.29138516 -4.12406288 0 0 Z " fill="#0D1825" transform="translate(816.05859375,836.8046875)"/>
<path d="M0 0 C5.39566746 3.7279157 7.1352812 9.08154835 8.71875 15.1875 C8.71875 15.8475 8.71875 16.5075 8.71875 17.1875 C-4.48125 17.1875 -17.68125 17.1875 -31.28125 17.1875 C-30.28393481 9.20897844 -29.51548147 6.25150876 -23.90625 0.9375 C-16.35141319 -4.09905787 -7.85631635 -4.48932363 0 0 Z " fill="#0D1825" transform="translate(160.28125,836.8125)"/>
<path d="M0 0 C3.4431146 2.09580889 5.7468218 4.1265401 7 8 C7.52055293 11.99090581 7.16996586 13.69523363 5.1875 17.25 C3 20 3 20 0 22 C-6.90258449 22.66799205 -6.90258449 22.66799205 -10.875 20.25 C-13.39892879 17.57760481 -14.86872749 15.52877773 -15.1875 11.81640625 C-14.82058796 7.40581783 -14.36134948 5.4318567 -11.4375 1.9375 C-6.96300932 -0.58448566 -5.06911706 -0.72415958 0 0 Z " fill="#F7F8F9" transform="translate(668,879)"/>
<path d="M0 0 C5.61 0 11.22 0 17 0 C17.33 1.65 17.66 3.3 18 5 C18.99 4.34 19.98 3.68 21 3 C21.99 2.67 22.98 2.34 24 2 C22.75491753 5.7352474 21.05380051 6.60058531 18 9 C17.01 10.32 16.02 11.64 15 13 C15.33 9.04 15.66 5.08 16 1 C11.05 1 6.1 1 1 1 C1 20.8 1 40.6 1 61 C0.01 61.495 0.01 61.495 -1 62 C-1.02314533 54.21151879 -1.04092629 46.4230456 -1.05181217 38.63453865 C-1.05703619 35.01822828 -1.06412515 31.40194139 -1.07543945 27.78564453 C-1.08628538 24.29731896 -1.09228047 20.80901602 -1.09487724 17.3206749 C-1.09763081 15.33862308 -1.1054401 13.3565804 -1.11329651 11.37454224 C-1.11337204 10.17344818 -1.11344757 8.97235413 -1.11352539 7.73486328 C-1.115746 6.67341095 -1.11796661 5.61195862 -1.12025452 4.51834106 C-1 2 -1 2 0 0 Z " fill="#00050E" transform="translate(438,822)"/>
<path d="M0 0 C3.01512745 2.6198516 4.62922297 5.68799823 6.5 9.1875 C7.0878125 10.27417969 7.675625 11.36085938 8.28125 12.48046875 C9.50842676 14.99339207 10.52345474 17.32712285 11.4609375 19.9375 C12.97883942 24.12175605 14.98088661 27.92015273 17.125 31.8125 C22.10957744 41.04433996 26.58261884 50.48674434 31 60 C31.9713857 62.0870459 32.94318523 64.17389757 33.91552734 66.26049805 C34.77528566 68.10755096 35.63185607 69.95608675 36.48828125 71.8046875 C37.76826217 74.51017689 39.10892916 77.16329342 40.5 79.8125 C41.2425 81.3903125 41.2425 81.3903125 42 83 C41.67 83.66 41.34 84.32 41 85 C33.49033584 70.993618 26.39116008 56.80408895 19.41186523 42.52685547 C17.67571135 38.9758886 15.93484797 35.4272594 14.19335938 31.87890625 C13.07003753 29.5860722 11.94698111 27.29310808 10.82421875 25 C10.31267746 23.95706787 9.80113617 22.91413574 9.27409363 21.83959961 C0 2.85092377 0 2.85092377 0 0 Z " fill="#076E78" transform="translate(409,391)"/>
<path d="M0 0 C0.66 0 1.32 0 2 0 C3.91887692 3.97810443 5.83469515 7.95767468 7.75 11.9375 C8.28882813 13.05447266 8.82765625 14.17144531 9.3828125 15.32226562 C12.09701901 20.96582916 14.75752601 26.60405674 17.14941406 32.39282227 C17.90325924 34.19385717 17.90325924 34.19385717 20 35 C20 36.32 20 37.64 20 39 C19.34 39 18.68 39 18 39 C15.91074829 34.89631827 13.82981942 30.78855633 11.75610352 26.67700195 C11.05127949 25.28232961 10.34429439 23.88874702 9.63500977 22.49633789 C5.89219487 15.14522787 2.29998685 7.95742576 0 0 Z " fill="#09717B" transform="translate(463,501)"/>
<path d="M0 0 C0.66 0 1.32 0 2 0 C3.4606285 2.64738916 4 3.89448334 4 7 C4.99 7.33 5.98 7.66 7 8 C8.1328125 10.36328125 8.1328125 10.36328125 9.125 13.3125 C9.45757812 14.27800781 9.79015625 15.24351562 10.1328125 16.23828125 C10.83782127 18.4835119 11.46674703 20.70918878 12 23 C8.83985354 20.89323569 8.28495878 20.02660526 6.73828125 16.71875 C6.14370117 15.45611328 6.14370117 15.45611328 5.53710938 14.16796875 C5.13298828 13.28753906 4.72886719 12.40710938 4.3125 11.5 C3.89677734 10.61957031 3.48105469 9.73914063 3.05273438 8.83203125 C0 2.28544489 0 2.28544489 0 0 Z " fill="#0D767F" transform="translate(451,477)"/>
<path d="M0 0 C0.33 0 0.66 0 1 0 C1.33 4.62 1.66 9.24 2 14 C7.28 14.33 12.56 14.66 18 15 C18 15.33 18 15.66 18 16 C15.18780295 16.19384179 12.37545804 16.38036603 9.5625 16.5625 C8.76005859 16.61857422 7.95761719 16.67464844 7.13085938 16.73242188 C5.08937889 16.8616295 3.04453631 16.9351273 1 17 C0 16 0 16 -0.09765625 12.40234375 C-0.0909822 10.91403133 -0.07902183 9.42573568 -0.0625 7.9375 C-0.05798828 7.17888672 -0.05347656 6.42027344 -0.04882812 5.63867188 C-0.0370068 3.75908129 -0.01907078 1.87953101 0 0 Z " fill="#232C37" transform="translate(571,885)"/>
<path d="M0 0 C0.66 0.33 1.32 0.66 2 1 C2 2.65 2 4.3 2 6 C3.65 4.68 5.3 3.36 7 2 C7 2.99 7 3.98 7 5 C5.36395804 6.37073786 3.69321939 7.70055256 2 9 C1.01 10.32 0.02 11.64 -1 13 C-0.67 8.71 -0.34 4.42 0 0 Z " fill="#070C14" transform="translate(454,822)"/>
<path d="M0 0 C1.13200698 4.5280279 0.60058415 5.96200784 -0.9375 10.25 C-1.31777344 11.32765625 -1.69804688 12.4053125 -2.08984375 13.515625 C-2.39019531 14.33546875 -2.69054687 15.1553125 -3 16 C-5.12508244 12.81237635 -5.5020163 10.73487777 -6 7 C-5.34 7.66 -4.68 8.32 -4 9 C-2.68 6.03 -1.36 3.06 0 0 Z " fill="#0C0F15" transform="translate(885,868)"/>
<path d="M0 0 C3 1 3 1 4.640625 3.6171875 C5.17171875 4.69226563 5.7028125 5.76734375 6.25 6.875 C6.79140625 7.94492187 7.3328125 9.01484375 7.890625 10.1171875 C9 13 9 13 8 16 C5.35820725 12.80815657 3.85450983 9.58418661 2.3125 5.75 C1.87550781 4.67234375 1.43851562 3.5946875 0.98828125 2.484375 C0.66214844 1.66453125 0.33601563 0.8446875 0 0 Z " fill="#0E747F" transform="translate(428,431)"/>
<path d="M0 0 C0.33 0 0.66 0 1 0 C1.8320582 5.72040011 2.12036664 11.22240116 2 17 C1.34 17.33 0.68 17.66 0 18 C-1.33257403 5.33029613 -1.33257403 5.33029613 0 0 Z " fill="#008A90" transform="translate(842,386)"/>
<path d="M0 0 C4.10110762 1.40398279 6.98089159 3.37087038 10.3125 6.125 C11.19550781 6.84945312 12.07851563 7.57390625 12.98828125 8.3203125 C13.65214844 8.87460937 14.31601562 9.42890625 15 10 C14.67 10.99 14.34 11.98 14 13 C13.49210937 12.46890625 12.98421875 11.9378125 12.4609375 11.390625 C8.52564358 7.35215858 4.77509787 3.98443617 0 1 C0 0.67 0 0.34 0 0 Z " fill="#09838A" transform="translate(399,249)"/>
<path d="M0 0 C4.33333333 4.33333333 8.66666667 8.66666667 13 13 C8.91161216 13 7.60456814 11.30030618 4.65234375 8.66015625 C2.14167048 6.13761219 0 3.65942519 0 0 Z " fill="#10151B" transform="translate(490,884)"/>
<path d="M0 0 C1.56393356 3.97376829 0.36145292 6.81377903 -0.9375 10.75 C-1.31777344 11.92046875 -1.69804687 13.0909375 -2.08984375 14.296875 C-2.39019531 15.18890625 -2.69054687 16.0809375 -3 17 C-3.66 17 -4.32 17 -5 17 C-5 15.02 -5 13.04 -5 11 C-4.34 11 -3.68 11 -3 11 C-2.690625 9.741875 -2.38125 8.48375 -2.0625 7.1875 C-1.46021952 4.73822606 -0.79911359 2.39734077 0 0 Z " fill="#0E1219" transform="translate(396,865)"/>
<path d="M0 0 C2.67901932 2.31881505 3.66204403 4.31814468 4.6875 7.6875 C4.93886719 8.49574219 5.19023438 9.30398438 5.44921875 10.13671875 C5.63097656 10.75160156 5.81273437 11.36648438 6 12 C6.66 12 7.32 12 8 12 C8 13.65 8 15.3 8 17 C4.95337118 14.43582853 3.79048902 11.59030769 2.3125 7.9375 C1.87550781 6.87402344 1.43851563 5.81054688 0.98828125 4.71484375 C0 2 0 2 0 0 Z " fill="#0E1221" transform="translate(814,293)"/>
<path d="M0 0 C0 0.66 0 1.32 0 2 C-1.91344374 2.39111271 -3.83096553 2.76231167 -5.75 3.125 C-6.81734375 3.33382812 -7.8846875 3.54265625 -8.984375 3.7578125 C-12.13688351 4.01099324 -13.39959066 3.70415175 -16 2 C-14.27192682 1.66104344 -12.54248026 1.32908475 -10.8125 1 C-9.84957031 0.814375 -8.88664062 0.62875 -7.89453125 0.4375 C-5.2065794 0.03122388 -2.71228981 -0.07933572 0 0 Z " fill="#00868C" transform="translate(453,112)"/>
<path d="M0 0 C4.10210762 1.51929912 6.63130057 4.4343959 9 8 C10.3125 11.375 10.3125 11.375 11 14 C8.53849853 11.6517578 6.45669923 9.12599241 4.375 6.4375 C3.45847656 5.25994141 3.45847656 5.25994141 2.5234375 4.05859375 C1 2 1 2 0 0 Z " fill="#070C12" transform="translate(171,828)"/>
<path d="M0 0 C0.66 0 1.32 0 2 0 C3.40234375 1.64453125 3.40234375 1.64453125 4.9375 3.8125 C6.80547282 6.43530583 8.65869193 8.78449355 11 11 C7.20450741 10.45418801 5.69020705 8.94590705 3.25 6.0625 C2.63640625 5.35222656 2.0228125 4.64195312 1.390625 3.91015625 C0 2 0 2 0 0 Z " fill="#018A8C" transform="translate(618,551)"/>
<path d="M0 0 C1.48285242 0.95262034 2.96118201 1.91228405 4.4375 2.875 C5.67306641 3.67550781 5.67306641 3.67550781 6.93359375 4.4921875 C9 6 9 6 10 8 C5.60316512 6.80086322 2.90159066 5.5711885 0 2 C0 1.34 0 0.68 0 0 Z " fill="#080C13" transform="translate(778,890)"/>
<path d="M0 0 C0.99 0.33 1.98 0.66 3 1 C3.33 3.64 3.66 6.28 4 9 C3.34 9 2.68 9 2 9 C1.34 6.03 0.68 3.06 0 0 Z " fill="#0A2231" transform="translate(187,518)"/>
<path d="M0 0 C0.99 0.33 1.98 0.66 3 1 C-1.455 3.97 -1.455 3.97 -6 7 C-6 6.01 -6 5.02 -6 4 C-3.1875 1.75 -3.1875 1.75 0 0 Z " fill="#008B8D" transform="translate(630,500)"/>
<path d="M0 0 C4.54805635 -0.17835515 7.8794254 0.00214565 12 2 C12 2.66 12 3.32 12 4 C6.06 2.515 6.06 2.515 0 1 C0 0.67 0 0.34 0 0 Z " fill="#47DDDA" transform="translate(653,495)"/>
</svg>
